<svg xmlns="http://www.w3.org/2000/svg" width="35" height="35" viewBox="0 0 35 35">
  <g id="Group_10" data-name="Group 10" transform="translate(-523 -493)">
    <circle id="Ellipse_9" data-name="Ellipse 9" cx="17.5" cy="17.5" r="17.5" transform="translate(523 493)" fill="#f77062"/>
    <path id="check-solid" d="M5.051,75.969.218,71.136a.744.744,0,0,1,0-1.051l1.051-1.051a.743.743,0,0,1,1.051,0l3.255,3.255,6.973-6.973a.743.743,0,0,1,1.051,0l1.051,1.051a.744.744,0,0,1,0,1.051L6.1,75.969a.743.743,0,0,1-1.051,0Z" transform="translate(533.13 439.49)" fill="#fff"/>
  </g>
</svg>
